<svg width="20" height="20" viewBox="0 0 20 20" fill="none" xmlns="http://www.w3.org/2000/svg">
<g id="tdesign:app">
<path id="Vector" d="M1.66797 1.66675H9.16797V9.16675H1.66797V1.66675ZM3.33464 3.33341V7.50008H7.5013V3.33341H3.33464ZM14.5846 3.33341C14.0321 3.33341 13.5022 3.55291 13.1115 3.94361C12.7208 4.33431 12.5013 4.86421 12.5013 5.41675C12.5013 5.96928 12.7208 6.49919 13.1115 6.88989C13.5022 7.28059 14.0321 7.50008 14.5846 7.50008C15.1372 7.50008 15.6671 7.28059 16.0578 6.88989C16.4485 6.49919 16.668 5.96928 16.668 5.41675C16.668 4.86421 16.4485 4.33431 16.0578 3.94361C15.6671 3.55291 15.1372 3.33341 14.5846 3.33341ZM10.8346 5.41675C10.8346 4.92429 10.9316 4.43666 11.1201 3.98169C11.3085 3.52671 11.5848 3.11332 11.933 2.7651C12.2812 2.41688 12.6946 2.14065 13.1496 1.9522C13.6045 1.76374 14.0922 1.66675 14.5846 1.66675C15.0771 1.66675 15.5647 1.76374 16.0197 1.9522C16.4747 2.14065 16.8881 2.41688 17.2363 2.7651C17.5845 3.11332 17.8607 3.52671 18.0492 3.98169C18.2376 4.43666 18.3346 4.92429 18.3346 5.41675C18.3346 6.41131 17.9395 7.36514 17.2363 8.0684C16.533 8.77166 15.5792 9.16675 14.5846 9.16675C13.5901 9.16675 12.6362 8.77166 11.933 8.0684C11.2297 7.36514 10.8346 6.41131 10.8346 5.41675ZM1.66797 10.8334H9.16797V18.3334H1.66797V10.8334ZM3.33464 12.5001V16.6667H7.5013V12.5001H3.33464ZM10.8346 10.8334H18.3346V18.3334H10.8346V10.8334ZM12.5013 12.5001V16.6667H16.668V12.5001H12.5013Z" fill="#111111"/>
</g>
</svg>
