<svg width="18" height="18" viewBox="0 0 18 18" fill="none" xmlns="http://www.w3.org/2000/svg">
<g id="radix-icons:check">
<path id="Vector" fill-rule="evenodd" clip-rule="evenodd" d="M13.7603 4.47281C14.1071 4.69961 14.2043 5.16401 13.9775 5.51081L8.87752 13.3108C8.81809 13.4017 8.73965 13.4786 8.6476 13.5362C8.55554 13.5938 8.45209 13.6307 8.34437 13.6444C8.23665 13.6581 8.12725 13.6482 8.02371 13.6155C7.92018 13.5828 7.82499 13.5279 7.74472 13.4548L4.44472 10.4548C4.29752 10.321 4.20952 10.1342 4.20007 9.93545C4.19061 9.73674 4.26049 9.54241 4.39432 9.39521C4.52815 9.24802 4.71497 9.16002 4.91368 9.15056C5.11239 9.14111 5.30672 9.21099 5.45392 9.34481L8.10352 11.7532L12.7223 4.69001C12.8312 4.52359 13.0017 4.40722 13.1963 4.36649C13.391 4.32576 13.5939 4.364 13.7603 4.47281Z" fill="#111111"/>
</g>
</svg>
