<svg width="18" height="20" viewBox="0 0 18 20" fill="none" xmlns="http://www.w3.org/2000/svg">
<path id="Vector" d="M7.26923 3.21429V3.57143H10.7308V3.21429C10.7308 2.74068 10.5484 2.28648 10.2238 1.9516C9.89926 1.61671 9.45903 1.42857 9 1.42857C8.54097 1.42857 8.10074 1.61671 7.77616 1.9516C7.45158 2.28648 7.26923 2.74068 7.26923 3.21429ZM5.88462 3.57143V3.21429C5.88462 2.3618 6.21284 1.54424 6.79709 0.941442C7.38134 0.338647 8.17375 0 9 0C9.82625 0 10.6187 0.338647 11.2029 0.941442C11.7872 1.54424 12.1154 2.3618 12.1154 3.21429V3.57143H17.3077C17.4913 3.57143 17.6674 3.64668 17.7972 3.78064C17.9271 3.91459 18 4.09627 18 4.28571C18 4.47515 17.9271 4.65684 17.7972 4.79079C17.6674 4.92475 17.4913 5 17.3077 5H16.2637L14.9538 16.8343C14.8573 17.7058 14.4531 18.5102 13.8186 19.0941C13.184 19.678 12.3633 20.0004 11.5131 20H6.48692C5.63667 20.0004 4.81602 19.678 4.18144 19.0941C3.54685 18.5102 3.14274 17.7058 3.04615 16.8343L1.73631 5H0.692308C0.508696 5 0.332605 4.92475 0.202772 4.79079C0.0729393 4.65684 0 4.47515 0 4.28571C0 4.09627 0.0729393 3.91459 0.202772 3.78064C0.332605 3.64668 0.508696 3.57143 0.692308 3.57143H5.88462ZM4.42246 16.6714C4.48026 17.1942 4.72248 17.6768 5.10295 18.0272C5.48342 18.3776 5.97554 18.5713 6.48554 18.5714H11.5138C12.0238 18.5713 12.5159 18.3776 12.8964 18.0272C13.2768 17.6768 13.519 17.1942 13.5768 16.6714L14.8708 5H3.12992L4.42246 16.6714ZM6.92308 7.5C7.10669 7.5 7.28278 7.57526 7.41261 7.70921C7.54245 7.84316 7.61539 8.02485 7.61539 8.21429V15.3571C7.61539 15.5466 7.54245 15.7283 7.41261 15.8622C7.28278 15.9962 7.10669 16.0714 6.92308 16.0714C6.73947 16.0714 6.56337 15.9962 6.43354 15.8622C6.30371 15.7283 6.23077 15.5466 6.23077 15.3571V8.21429C6.23077 8.02485 6.30371 7.84316 6.43354 7.70921C6.56337 7.57526 6.73947 7.5 6.92308 7.5ZM11.7692 8.21429C11.7692 8.02485 11.6963 7.84316 11.5665 7.70921C11.4366 7.57526 11.2605 7.5 11.0769 7.5C10.8933 7.5 10.7172 7.57526 10.5874 7.70921C10.4576 7.84316 10.3846 8.02485 10.3846 8.21429V15.3571C10.3846 15.5466 10.4576 15.7283 10.5874 15.8622C10.7172 15.9962 10.8933 16.0714 11.0769 16.0714C11.2605 16.0714 11.4366 15.9962 11.5665 15.8622C11.6963 15.7283 11.7692 15.5466 11.7692 15.3571V8.21429Z" fill="#282828"/>
</svg>
