<svg width="79" height="15" viewBox="0 0 79 15" fill="none" xmlns="http://www.w3.org/2000/svg">
<path d="M2.97363 1.20312V14H0.336914V1.20312H2.97363ZM8.07129 6.66992V8.72656H2.25293V6.66992H8.07129ZM8.68652 1.20312V3.26855H2.25293V1.20312H8.68652ZM12.7295 4.49023V14H10.1895V4.49023H12.7295ZM10.0312 2.01172C10.0312 1.64258 10.1602 1.33789 10.418 1.09766C10.6758 0.857422 11.0215 0.737305 11.4551 0.737305C11.8828 0.737305 12.2256 0.857422 12.4834 1.09766C12.7471 1.33789 12.8789 1.64258 12.8789 2.01172C12.8789 2.38086 12.7471 2.68555 12.4834 2.92578C12.2256 3.16602 11.8828 3.28613 11.4551 3.28613C11.0215 3.28613 10.6758 3.16602 10.418 2.92578C10.1602 2.68555 10.0312 2.38086 10.0312 2.01172ZM17.4932 0.5V14H14.9531V0.5H17.4932ZM23.9619 14.1758C23.2236 14.1758 22.5615 14.0586 21.9756 13.8242C21.3896 13.584 20.8916 13.2529 20.4814 12.8311C20.0771 12.4092 19.7666 11.9199 19.5498 11.3633C19.333 10.8008 19.2246 10.2031 19.2246 9.57031V9.21875C19.2246 8.49805 19.3271 7.83887 19.5322 7.24121C19.7373 6.64355 20.0303 6.125 20.4111 5.68555C20.7979 5.24609 21.2666 4.90918 21.8174 4.6748C22.3682 4.43457 22.9893 4.31445 23.6807 4.31445C24.3545 4.31445 24.9521 4.42578 25.4736 4.64844C25.9951 4.87109 26.4316 5.1875 26.7832 5.59766C27.1406 6.00781 27.4102 6.5 27.5918 7.07422C27.7734 7.64258 27.8643 8.27539 27.8643 8.97266V10.0273H20.3057V8.33984H25.377V8.14648C25.377 7.79492 25.3125 7.48145 25.1836 7.20605C25.0605 6.9248 24.873 6.70215 24.6211 6.53809C24.3691 6.37402 24.0469 6.29199 23.6543 6.29199C23.3203 6.29199 23.0332 6.36523 22.793 6.51172C22.5527 6.6582 22.3564 6.86328 22.2041 7.12695C22.0576 7.39062 21.9463 7.70117 21.8701 8.05859C21.7998 8.41016 21.7646 8.79688 21.7646 9.21875V9.57031C21.7646 9.95117 21.8174 10.3027 21.9229 10.625C22.0342 10.9473 22.1895 11.2256 22.3887 11.46C22.5938 11.6943 22.8398 11.876 23.127 12.0049C23.4199 12.1338 23.751 12.1982 24.1201 12.1982C24.5771 12.1982 25.002 12.1104 25.3945 11.9346C25.793 11.7529 26.1357 11.4805 26.4229 11.1172L27.6533 12.4531C27.4541 12.7402 27.1816 13.0156 26.8359 13.2793C26.4961 13.543 26.0859 13.7598 25.6055 13.9297C25.125 14.0938 24.5771 14.1758 23.9619 14.1758ZM38.9297 11.3721C38.9297 11.1904 38.877 11.0264 38.7715 10.8799C38.666 10.7334 38.4697 10.5986 38.1826 10.4756C37.9014 10.3467 37.4941 10.2295 36.9609 10.124C36.4805 10.0186 36.0322 9.88672 35.6162 9.72852C35.2061 9.56445 34.8486 9.36816 34.5439 9.13965C34.2451 8.91113 34.0107 8.6416 33.8408 8.33105C33.6709 8.01465 33.5859 7.6543 33.5859 7.25C33.5859 6.85156 33.6709 6.47656 33.8408 6.125C34.0166 5.77344 34.2656 5.46289 34.5879 5.19336C34.916 4.91797 35.3145 4.7041 35.7832 4.55176C36.2578 4.39355 36.791 4.31445 37.3828 4.31445C38.209 4.31445 38.918 4.44629 39.5098 4.70996C40.1074 4.97363 40.5645 5.33691 40.8809 5.7998C41.2031 6.25684 41.3643 6.77832 41.3643 7.36426H38.833C38.833 7.11816 38.7803 6.89844 38.6748 6.70508C38.5752 6.50586 38.417 6.35059 38.2002 6.23926C37.9893 6.12207 37.7139 6.06348 37.374 6.06348C37.0928 6.06348 36.8496 6.11328 36.6445 6.21289C36.4395 6.30664 36.2812 6.43555 36.1699 6.59961C36.0645 6.75781 36.0117 6.93359 36.0117 7.12695C36.0117 7.27344 36.041 7.40527 36.0996 7.52246C36.1641 7.63379 36.2666 7.73633 36.4072 7.83008C36.5479 7.92383 36.7295 8.01172 36.9521 8.09375C37.1807 8.16992 37.4619 8.24023 37.7959 8.30469C38.4814 8.44531 39.0938 8.62988 39.6328 8.8584C40.1719 9.08105 40.5996 9.38574 40.916 9.77246C41.2324 10.1533 41.3906 10.6543 41.3906 11.2754C41.3906 11.6973 41.2969 12.084 41.1094 12.4355C40.9219 12.7871 40.6523 13.0947 40.3008 13.3584C39.9492 13.6162 39.5273 13.8184 39.0352 13.9648C38.5488 14.1055 38.001 14.1758 37.3916 14.1758C36.5068 14.1758 35.7568 14.0176 35.1416 13.7012C34.5322 13.3848 34.0693 12.9834 33.7529 12.4971C33.4424 12.0049 33.2871 11.501 33.2871 10.9854H35.6865C35.6982 11.3311 35.7861 11.6094 35.9502 11.8203C36.1201 12.0312 36.334 12.1836 36.5918 12.2773C36.8555 12.3711 37.1396 12.418 37.4443 12.418C37.7725 12.418 38.0449 12.374 38.2617 12.2861C38.4785 12.1924 38.6426 12.0693 38.7539 11.917C38.8711 11.7588 38.9297 11.5771 38.9297 11.3721ZM45.7061 4.49023V14H43.166V4.49023H45.7061ZM43.0078 2.01172C43.0078 1.64258 43.1367 1.33789 43.3945 1.09766C43.6523 0.857422 43.998 0.737305 44.4316 0.737305C44.8594 0.737305 45.2021 0.857422 45.46 1.09766C45.7236 1.33789 45.8555 1.64258 45.8555 2.01172C45.8555 2.38086 45.7236 2.68555 45.46 2.92578C45.2021 3.16602 44.8594 3.28613 44.4316 3.28613C43.998 3.28613 43.6523 3.16602 43.3945 2.92578C43.1367 2.68555 43.0078 2.38086 43.0078 2.01172ZM55.3652 12.0225V14H48.1406V12.0225H55.3652ZM55.2246 5.94922L49.1602 14H47.4639V12.4971L53.502 4.49023H55.2246V5.94922ZM54.3281 4.49023V6.47656H47.6045V4.49023H54.3281ZM61.1924 14.1758C60.4541 14.1758 59.792 14.0586 59.2061 13.8242C58.6201 13.584 58.1221 13.2529 57.7119 12.8311C57.3076 12.4092 56.9971 11.9199 56.7803 11.3633C56.5635 10.8008 56.4551 10.2031 56.4551 9.57031V9.21875C56.4551 8.49805 56.5576 7.83887 56.7627 7.24121C56.9678 6.64355 57.2607 6.125 57.6416 5.68555C58.0283 5.24609 58.4971 4.90918 59.0479 4.6748C59.5986 4.43457 60.2197 4.31445 60.9111 4.31445C61.585 4.31445 62.1826 4.42578 62.7041 4.64844C63.2256 4.87109 63.6621 5.1875 64.0137 5.59766C64.3711 6.00781 64.6406 6.5 64.8223 7.07422C65.0039 7.64258 65.0947 8.27539 65.0947 8.97266V10.0273H57.5361V8.33984H62.6074V8.14648C62.6074 7.79492 62.543 7.48145 62.4141 7.20605C62.291 6.9248 62.1035 6.70215 61.8516 6.53809C61.5996 6.37402 61.2773 6.29199 60.8848 6.29199C60.5508 6.29199 60.2637 6.36523 60.0234 6.51172C59.7832 6.6582 59.5869 6.86328 59.4346 7.12695C59.2881 7.39062 59.1768 7.70117 59.1006 8.05859C59.0303 8.41016 58.9951 8.79688 58.9951 9.21875V9.57031C58.9951 9.95117 59.0479 10.3027 59.1533 10.625C59.2646 10.9473 59.4199 11.2256 59.6191 11.46C59.8242 11.6943 60.0703 11.876 60.3574 12.0049C60.6504 12.1338 60.9814 12.1982 61.3506 12.1982C61.8076 12.1982 62.2324 12.1104 62.625 11.9346C63.0234 11.7529 63.3662 11.4805 63.6533 11.1172L64.8838 12.4531C64.6846 12.7402 64.4121 13.0156 64.0664 13.2793C63.7266 13.543 63.3164 13.7598 62.8359 13.9297C62.3555 14.0938 61.8076 14.1758 61.1924 14.1758ZM66.6328 12.7783C66.6328 12.4033 66.7617 12.0898 67.0195 11.8379C67.2832 11.5859 67.6318 11.46 68.0654 11.46C68.499 11.46 68.8447 11.5859 69.1025 11.8379C69.3662 12.0898 69.498 12.4033 69.498 12.7783C69.498 13.1533 69.3662 13.4668 69.1025 13.7188C68.8447 13.9707 68.499 14.0967 68.0654 14.0967C67.6318 14.0967 67.2832 13.9707 67.0195 13.7188C66.7617 13.4668 66.6328 13.1533 66.6328 12.7783ZM66.6328 5.52734C66.6328 5.15234 66.7617 4.83887 67.0195 4.58691C67.2832 4.33496 67.6318 4.20898 68.0654 4.20898C68.499 4.20898 68.8447 4.33496 69.1025 4.58691C69.3662 4.83887 69.498 5.15234 69.498 5.52734C69.498 5.90234 69.3662 6.21582 69.1025 6.46777C68.8447 6.71973 68.499 6.8457 68.0654 6.8457C67.6318 6.8457 67.2832 6.71973 67.0195 6.46777C66.7617 6.21582 66.6328 5.90234 66.6328 5.52734Z" fill="#282828"/>
<path d="M71.7393 7.91797L73.6641 5.51855L70.8691 4.72754L71.3965 3.18066L74.1387 4.27051L73.9717 1.20312H75.6768L75.4922 4.33203L78.1816 3.25098L78.7002 4.82422L75.8613 5.61523L77.7246 7.96191L76.3447 8.92871L74.7275 6.3623L73.1191 8.84961L71.7393 7.91797Z" fill="#FF453A"/>
</svg>
