<svg width="16" height="13" viewBox="0 0 16 13" fill="none" xmlns="http://www.w3.org/2000/svg">
<path id="Vector" d="M7.4009 0.273033C7.49038 0.359275 7.56137 0.461751 7.60982 0.574587C7.65826 0.687421 7.6832 0.808398 7.6832 0.930574C7.6832 1.05275 7.65826 1.17372 7.60982 1.28656C7.56137 1.3994 7.49038 1.50187 7.4009 1.58812L3.28251 5.57127L15.0402 5.57127C15.2947 5.57127 15.5389 5.66907 15.7189 5.84316C15.8989 6.01725 16 6.25336 16 6.49956C16 6.74576 15.8989 6.98188 15.7189 7.15596C15.5389 7.33005 15.2947 7.42785 15.0402 7.42785L3.28251 7.42785L7.4009 11.4126C7.58121 11.5869 7.68251 11.8235 7.68251 12.0701C7.68251 12.3167 7.58121 12.5532 7.4009 12.7276C7.22059 12.902 6.97603 13 6.72103 13C6.46603 13 6.22148 12.902 6.04117 12.7276L0.282301 7.15788C0.192821 7.07164 0.121824 6.96916 0.0733802 6.85632C0.0249366 6.74349 -2.78769e-07 6.62251 -2.84109e-07 6.50034C-2.8945e-07 6.37816 0.0249365 6.25718 0.0733801 6.14435C0.121824 6.03151 0.192821 5.92904 0.282301 5.84279L6.04116 0.273033C6.13033 0.186492 6.23629 0.117825 6.35296 0.0709722C6.46962 0.0241191 6.59471 6.65411e-07 6.72103 6.59889e-07C6.84735 6.54367e-07 6.97244 0.0241191 7.0891 0.0709721C7.20577 0.117825 7.31173 0.186492 7.4009 0.273033Z" fill="#4D4D4D"/>
</svg>
