<svg width="22" height="22" viewBox="0 0 22 22" fill="none" xmlns="http://www.w3.org/2000/svg">
<g id="quill:list">
<path id="Vector" d="M8.25 5.5H18.5625M8.25 11H14.4375M8.25 16.5H18.5625M4.8125 16.5C4.8125 16.6823 4.74007 16.8572 4.61114 16.9861C4.4822 17.1151 4.30734 17.1875 4.125 17.1875C3.94266 17.1875 3.7678 17.1151 3.63886 16.9861C3.50993 16.8572 3.4375 16.6823 3.4375 16.5C3.4375 16.3177 3.50993 16.1428 3.63886 16.0139C3.7678 15.8849 3.94266 15.8125 4.125 15.8125C4.30734 15.8125 4.4822 15.8849 4.61114 16.0139C4.74007 16.1428 4.8125 16.3177 4.8125 16.5ZM4.8125 11C4.8125 11.1823 4.74007 11.3572 4.61114 11.4861C4.4822 11.6151 4.30734 11.6875 4.125 11.6875C3.94266 11.6875 3.7678 11.6151 3.63886 11.4861C3.50993 11.3572 3.4375 11.1823 3.4375 11C3.4375 10.8177 3.50993 10.6428 3.63886 10.5139C3.7678 10.3849 3.94266 10.3125 4.125 10.3125C4.30734 10.3125 4.4822 10.3849 4.61114 10.5139C4.74007 10.6428 4.8125 10.8177 4.8125 11ZM4.8125 5.5C4.8125 5.68234 4.74007 5.8572 4.61114 5.98614C4.4822 6.11507 4.30734 6.1875 4.125 6.1875C3.94266 6.1875 3.7678 6.11507 3.63886 5.98614C3.50993 5.8572 3.4375 5.68234 3.4375 5.5C3.4375 5.31766 3.50993 5.1428 3.63886 5.01386C3.7678 4.88493 3.94266 4.8125 4.125 4.8125C4.30734 4.8125 4.4822 4.88493 4.61114 5.01386C4.74007 5.1428 4.8125 5.31766 4.8125 5.5Z" stroke="#282828" stroke-width="2" stroke-linecap="round"/>
</g>
</svg>
