<svg width="18" height="18" viewBox="0 0 18 18" fill="none" xmlns="http://www.w3.org/2000/svg">
<g id="tdesign:app">
<path id="Vector" d="M1.5 1.5H8.25V8.25H1.5V1.5ZM3 3V6.75H6.75V3H3ZM13.125 3C12.6277 3 12.1508 3.19754 11.7992 3.54918C11.4475 3.90081 11.25 4.37772 11.25 4.875C11.25 5.37228 11.4475 5.8492 11.7992 6.20083C12.1508 6.55246 12.6277 6.75 13.125 6.75C13.6223 6.75 14.0992 6.55246 14.4508 6.20083C14.8025 5.8492 15 5.37228 15 4.875C15 4.37772 14.8025 3.90081 14.4508 3.54918C14.0992 3.19754 13.6223 3 13.125 3ZM9.75 4.875C9.75 4.43179 9.8373 3.99292 10.0069 3.58344C10.1765 3.17397 10.4251 2.80191 10.7385 2.48851C11.0519 2.17512 11.424 1.92652 11.8334 1.75691C12.2429 1.5873 12.6818 1.5 13.125 1.5C13.5682 1.5 14.0071 1.5873 14.4166 1.75691C14.826 1.92652 15.1981 2.17512 15.5115 2.48851C15.8249 2.80191 16.0735 3.17397 16.2431 3.58344C16.4127 3.99292 16.5 4.43179 16.5 4.875C16.5 5.77011 16.1444 6.62855 15.5115 7.26149C14.8786 7.89442 14.0201 8.25 13.125 8.25C12.2299 8.25 11.3715 7.89442 10.7385 7.26149C10.1056 6.62855 9.75 5.77011 9.75 4.875ZM1.5 9.75H8.25V16.5H1.5V9.75ZM3 11.25V15H6.75V11.25H3ZM9.75 9.75H16.5V16.5H9.75V9.75ZM11.25 11.25V15H15V11.25H11.25Z" fill="#111111"/>
</g>
</svg>
