<svg width="22" height="22" viewBox="0 0 22 22" fill="none" xmlns="http://www.w3.org/2000/svg">
<g id="tdesign:app">
<path id="Vector" d="M1.83203 1.83325H10.082V10.0833H1.83203V1.83325ZM3.66536 3.66659V8.24992H8.2487V3.66659H3.66536ZM16.0404 3.66659C15.4326 3.66659 14.8497 3.90803 14.4199 4.3378C13.9901 4.76757 13.7487 5.35046 13.7487 5.95825C13.7487 6.56604 13.9901 7.14893 14.4199 7.57871C14.8497 8.00848 15.4326 8.24992 16.0404 8.24992C16.6482 8.24992 17.231 8.00848 17.6608 7.57871C18.0906 7.14893 18.332 6.56604 18.332 5.95825C18.332 5.35046 18.0906 4.76757 17.6608 4.3378C17.231 3.90803 16.6482 3.66659 16.0404 3.66659ZM11.9154 5.95825C11.9154 5.41655 12.0221 4.88015 12.2294 4.37968C12.4367 3.87921 12.7405 3.42448 13.1235 3.04144C13.5066 2.65839 13.9613 2.35455 14.4618 2.14725C14.9623 1.93995 15.4987 1.83325 16.0404 1.83325C16.5821 1.83325 17.1185 1.93995 17.6189 2.14725C18.1194 2.35455 18.5741 2.65839 18.9572 3.04144C19.3402 3.42448 19.6441 3.87921 19.8514 4.37968C20.0587 4.88015 20.1654 5.41655 20.1654 5.95825C20.1654 7.05227 19.7308 8.10148 18.9572 8.87507C18.1836 9.64865 17.1344 10.0833 16.0404 10.0833C14.9463 10.0833 13.8971 9.64865 13.1235 8.87507C12.35 8.10148 11.9154 7.05227 11.9154 5.95825ZM1.83203 11.9166H10.082V20.1666H1.83203V11.9166ZM3.66536 13.7499V18.3333H8.2487V13.7499H3.66536ZM11.9154 11.9166H20.1654V20.1666H11.9154V11.9166ZM13.7487 13.7499V18.3333H18.332V13.7499H13.7487Z" fill="#111111"/>
</g>
</svg>
