<svg width="16" height="13" viewBox="0 0 16 13" fill="none" xmlns="http://www.w3.org/2000/svg">
<path id="Vector" d="M8.5991 12.727C8.50962 12.6407 8.43862 12.5382 8.39018 12.4254C8.34174 12.3126 8.3168 12.1916 8.3168 12.0694C8.3168 11.9473 8.34174 11.8263 8.39018 11.7134C8.43862 11.6006 8.50962 11.4981 8.5991 11.4119L12.7175 7.42873L0.959811 7.42873C0.705253 7.42873 0.461122 7.33093 0.281123 7.15684C0.101124 6.98275 -2.94905e-07 6.74664 -2.84143e-07 6.50044C-2.73382e-07 6.25424 0.101124 6.01812 0.281123 5.84404C0.461122 5.66995 0.705253 5.57214 0.959811 5.57214L12.7175 5.57215L8.5991 1.58744C8.41879 1.41305 8.31749 1.17653 8.31749 0.929904C8.31749 0.683278 8.41879 0.446753 8.5991 0.272362C8.77941 0.0979715 9.02397 -3.02333e-07 9.27897 -2.93786e-07C9.53397 -2.85238e-07 9.77852 0.0979716 9.95883 0.272362L15.7177 5.84212C15.8072 5.92837 15.8782 6.03084 15.9266 6.14368C15.9751 6.25651 16 6.37749 16 6.49967C16 6.62184 15.9751 6.74282 15.9266 6.85565C15.8782 6.96849 15.8072 7.07097 15.7177 7.15721L9.95883 12.727C9.86966 12.8135 9.76371 12.8822 9.64704 12.929C9.53037 12.9759 9.40529 13 9.27897 13C9.15264 13 9.02756 12.9759 8.9109 12.929C8.79423 12.8822 8.68827 12.8135 8.5991 12.727Z" fill="#4D4D4D" fill-opacity="0.53"/>
</svg>
