<svg width="15" height="15" viewBox="0 0 15 15" fill="none" xmlns="http://www.w3.org/2000/svg">
<g id="noto-v1:scissors">
<g id="Vector">
<path d="M7.67246 5.17383L11.0053 0.585938C11.651 1.05586 11.7951 1.95937 11.3252 2.60625L8.35097 6.69961M6.56504 9.1582C5.91933 8.68828 5.77519 7.78477 6.24511 7.13789L6.69043 6.525L7.37011 8.05078L5.03925 11.25" fill="#282828"/>
<path d="M7.67246 5.17383L11.0053 0.585938C11.651 1.05586 11.7951 1.95937 11.3252 2.60625L8.35097 6.69961M6.56504 9.1582C5.91933 8.68828 5.77519 7.78477 6.24511 7.13789L6.69043 6.525L7.37011 8.05078L5.03925 11.25" stroke="#282828" stroke-width="0.8" stroke-miterlimit="10"/>
</g>
<g id="Clip path group">
<mask id="mask0_2045_272" style="mask-type:luminance" maskUnits="userSpaceOnUse" x="5" y="6" width="3" height="4">
<g id="notoV1Scissors1">
<path id="Vector_2" d="M6.56367 9.60938C5.73633 9.0082 5.37656 7.85859 5.97773 7.03125L6.54727 6.24727L7.59375 8.19141L6.56367 9.60938Z" fill="white"/>
</g>
</mask>
<g mask="url(#mask0_2045_272)">
<path id="Vector_3" d="M6.08633 6.58481L7.67188 8.73755" stroke="#282828" stroke-width="4" stroke-miterlimit="10"/>
</g>
</g>
<g id="Vector_4">
<path d="M10.1953 10.7813L8.67188 8.78916L10.1953 10.7813ZM8.55234 9.1583C9.19805 8.68838 9.34219 7.78486 8.87227 7.13799L4.11211 0.586036C3.46641 1.05596 3.32227 1.95947 3.79219 2.60635L9.96563 11.0005" fill="#282828"/>
<path d="M10.1953 10.7813L8.67188 8.78916M8.55234 9.1583C9.19805 8.68838 9.34219 7.78486 8.87227 7.13799L4.11211 0.586036C3.46641 1.05596 3.32227 1.95947 3.79219 2.60635L9.96563 11.0005" stroke="#282828" stroke-width="0.8" stroke-miterlimit="10"/>
</g>
<path id="Vector_5" d="M7.58516 6.32803C7.40782 6.32803 7.26406 6.47179 7.26406 6.64912C7.26406 6.82646 7.40782 6.97021 7.58516 6.97021C7.76249 6.97021 7.90625 6.82646 7.90625 6.64912C7.90625 6.47179 7.76249 6.32803 7.58516 6.32803Z" fill="#282828"/>
<g id="Vector_6">
<path d="M5.27344 10.5469L6.79688 8.55469L5.27344 10.5469Z" fill="#282828"/>
<path d="M5.27344 10.5469L6.79688 8.55469" stroke="#282828" stroke-miterlimit="10"/>
</g>
<path id="Vector_7" d="M4.68906 10.3125L5.43672 9.47227C5.45981 9.44641 5.48835 9.426 5.52028 9.4125C5.55221 9.39901 5.58674 9.39276 5.62138 9.39422C5.65601 9.39568 5.68989 9.4048 5.72058 9.42093C5.75126 9.43706 5.77799 9.4598 5.79883 9.4875L6.24883 10.0863L5.62656 11.1328L4.68906 10.3125ZM10.5039 10.3125L9.76094 9.47695C9.7376 9.45065 9.70865 9.42994 9.67622 9.41635C9.6438 9.40276 9.60873 9.39664 9.57362 9.39844C9.5385 9.40024 9.50425 9.40991 9.47338 9.42675C9.44252 9.44359 9.41583 9.46715 9.39531 9.4957L8.95117 10.1145L9.56641 11.1328L10.5039 10.3125Z" fill="#282828"/>
<path id="Vector_8" d="M11.1868 9.9317C12.0329 9.9317 12.8568 10.37 13.3091 11.154C13.9841 12.3223 13.5822 13.8223 12.415 14.4962C11.2466 15.1712 9.74778 14.7692 9.07395 13.6008C8.40012 12.4325 8.8009 10.9337 9.96926 10.2598C10.3525 10.0372 10.7732 9.9317 11.1868 9.9317ZM11.1939 13.7696C11.4294 13.7696 11.6685 13.7098 11.8876 13.5833C12.5521 13.2001 12.7806 12.3469 12.3974 11.6825C12.0142 11.018 11.1611 10.7895 10.4966 11.1727C9.83215 11.5559 9.60364 12.409 9.98684 13.0735C10.2435 13.52 10.7122 13.7696 11.1939 13.7696ZM3.8134 9.9317C4.22825 9.9317 4.64778 10.0372 5.03215 10.2587C6.20051 10.9325 6.60246 12.4325 5.92746 13.5997C5.25364 14.768 3.75364 15.17 2.58645 14.495C1.41809 13.8212 1.01614 12.3212 1.69114 11.154C2.14231 10.3712 2.96731 9.9317 3.8134 9.9317ZM3.80637 13.7696C4.28801 13.7696 4.75676 13.52 5.0134 13.0747C5.3966 12.4102 5.16809 11.5571 4.50364 11.1739C3.83918 10.7907 2.98606 11.0192 2.60285 11.6837C2.21965 12.3481 2.44817 13.2012 3.11262 13.5844C3.32395 13.7052 3.56299 13.769 3.80637 13.7696Z" fill="#282828"/>
</g>
</svg>
