<svg width="16" height="15" viewBox="0 0 16 15" fill="none" xmlns="http://www.w3.org/2000/svg">
<path id="Vector" d="M16 14.2155L11.5307 10.0255C12.6047 8.8167 13.1402 7.26626 13.026 5.69671C12.9117 4.12716 12.1564 2.65934 10.9171 1.59859C9.67784 0.537844 8.05008 -0.0341578 6.37243 0.00157912C4.69478 0.037316 3.09641 0.67804 1.90983 1.79046C0.723243 2.90288 0.0398038 4.40136 0.00168439 5.97415C-0.036435 7.54695 0.5737 9.07298 1.70516 10.2348C2.83663 11.3966 4.40231 12.1047 6.07649 12.2118C7.75068 12.319 9.40448 11.8169 10.6938 10.81L15.1632 15L16 14.2155ZM1.20478 6.12287C1.20478 5.13527 1.51716 4.16985 2.10242 3.34869C2.68768 2.52753 3.51953 1.88752 4.49278 1.50958C5.46603 1.13164 6.53697 1.03276 7.57016 1.22543C8.60336 1.4181 9.55241 1.89367 10.2973 2.59201C11.0422 3.29035 11.5495 4.18009 11.755 5.14871C11.9605 6.11733 11.855 7.12133 11.4519 8.03375C11.0488 8.94618 10.3661 9.72604 9.49018 10.2747C8.61428 10.8234 7.5845 11.1163 6.53106 11.1163C5.11892 11.1148 3.76507 10.5882 2.76654 9.6521C1.76801 8.71598 1.20635 7.44675 1.20478 6.12287Z" fill="#4D4D4D"/>
</svg>
