<svg width="16" height="16" viewBox="0 0 16 16" fill="none" xmlns="http://www.w3.org/2000/svg">
<g id="tdesign:app">
<path id="Vector" d="M1.33203 1.33325H7.33203V7.33325H1.33203V1.33325ZM2.66536 2.66659V5.99992H5.9987V2.66659H2.66536ZM11.6654 2.66659C11.2233 2.66659 10.7994 2.84218 10.4869 3.15474C10.1743 3.4673 9.9987 3.89122 9.9987 4.33325C9.9987 4.77528 10.1743 5.1992 10.4869 5.51176C10.7994 5.82432 11.2233 5.99992 11.6654 5.99992C12.1074 5.99992 12.5313 5.82432 12.8439 5.51176C13.1564 5.1992 13.332 4.77528 13.332 4.33325C13.332 3.89122 13.1564 3.4673 12.8439 3.15474C12.5313 2.84218 12.1074 2.66659 11.6654 2.66659ZM8.66536 4.33325C8.66536 3.93929 8.74296 3.54918 8.89373 3.1852C9.04449 2.82122 9.26547 2.49051 9.54404 2.21193C9.82262 1.93336 10.1533 1.71238 10.5173 1.56161C10.8813 1.41085 11.2714 1.33325 11.6654 1.33325C12.0593 1.33325 12.4494 1.41085 12.8134 1.56161C13.1774 1.71238 13.5081 1.93336 13.7867 2.21193C14.0653 2.49051 14.2862 2.82122 14.437 3.1852C14.5878 3.54918 14.6654 3.93929 14.6654 4.33325C14.6654 5.1289 14.3493 5.89196 13.7867 6.45457C13.2241 7.01718 12.461 7.33325 11.6654 7.33325C10.8697 7.33325 10.1067 7.01718 9.54404 6.45457C8.98144 5.89196 8.66536 5.1289 8.66536 4.33325ZM1.33203 8.66659H7.33203V14.6666H1.33203V8.66659ZM2.66536 9.99992V13.3333H5.9987V9.99992H2.66536ZM8.66536 8.66659H14.6654V14.6666H8.66536V8.66659ZM9.9987 9.99992V13.3333H13.332V9.99992H9.9987Z" fill="#111111"/>
</g>
</svg>
