<svg width="15" height="15" viewBox="0 0 15 15" fill="none" xmlns="http://www.w3.org/2000/svg">
<path id="Vector" d="M14.9352 5.62585C14.8566 5.37618 14.709 5.15595 14.5106 4.99253C14.3123 4.82912 14.072 4.72972 13.8196 4.70669L10.1352 4.37641L8.69377 0.816334C8.59461 0.574234 8.42891 0.367733 8.2173 0.222569C8.00569 0.0774057 7.75754 0 7.50379 0C7.25003 0 7.00188 0.0774057 6.79027 0.222569C6.57866 0.367733 6.41296 0.574234 6.3138 0.816334L4.87044 4.37641L1.18608 4.70669C0.932305 4.72847 0.690387 4.82744 0.490681 4.99119C0.290975 5.15494 0.142376 5.37618 0.0635305 5.62713C-0.0153154 5.87809 -0.0208966 6.14759 0.0474871 6.40182C0.115871 6.65606 0.255174 6.88369 0.447916 7.05618L3.24803 9.58856L2.40774 13.3563C2.35011 13.6129 2.36673 13.8814 2.45551 14.1282C2.5443 14.375 2.70131 14.5892 2.90692 14.7441C3.11253 14.8989 3.35762 14.9875 3.61155 14.9988C3.86547 15.01 4.11697 14.9435 4.33459 14.8074L7.50185 12.8137L10.6691 14.8074C10.8867 14.9433 11.1381 15.0097 11.3919 14.9983C11.6457 14.9869 11.8907 14.8983 12.0962 14.7435C12.3017 14.5887 12.4586 14.3745 12.5474 14.1278C12.6362 13.8811 12.6528 13.6128 12.5953 13.3563L11.755 9.58856L14.5551 7.05618C14.7474 6.88307 14.886 6.65497 14.9536 6.40051C15.0212 6.14605 15.0148 5.87655 14.9352 5.62585ZM10.6206 8.48114C10.4434 8.64099 10.3115 8.84789 10.2392 9.0796C10.1668 9.31131 10.1568 9.55907 10.2102 9.79624L10.9464 13.1004L8.17085 11.3532C7.96929 11.226 7.73784 11.1587 7.50185 11.1587C7.26585 11.1587 7.03441 11.226 6.83284 11.3532L4.05729 13.1004L4.79352 9.79624C4.84687 9.55907 4.83685 9.31131 4.76453 9.0796C4.69222 8.84789 4.56034 8.64099 4.38307 8.48114L1.92101 6.25492L5.16196 5.96417C5.39665 5.94334 5.62133 5.85619 5.81154 5.71219C6.00175 5.5682 6.15022 5.37289 6.24076 5.14751L7.50185 2.03295L8.76293 5.14751C8.85348 5.37289 9.00194 5.5682 9.19215 5.71219C9.38237 5.85619 9.60705 5.94334 9.84174 5.96417L13.0827 6.25492L10.6206 8.48114Z" fill="#4D4D4D"/>
</svg>
