<svg width="14" height="14" viewBox="0 0 14 14" fill="none" xmlns="http://www.w3.org/2000/svg">
<g id="tdesign:app">
<path id="Vector" d="M1.16797 1.16675H6.41797V6.41675H1.16797V1.16675ZM2.33464 2.33341V5.25008H5.2513V2.33341H2.33464ZM10.2096 2.33341C9.82286 2.33341 9.45193 2.48706 9.17844 2.76055C8.90495 3.03404 8.7513 3.40497 8.7513 3.79175C8.7513 4.17852 8.90495 4.54946 9.17844 4.82295C9.45193 5.09644 9.82286 5.25008 10.2096 5.25008C10.5964 5.25008 10.9673 5.09644 11.2408 4.82295C11.5143 4.54946 11.668 4.17852 11.668 3.79175C11.668 3.40497 11.5143 3.03404 11.2408 2.76055C10.9673 2.48706 10.5964 2.33341 10.2096 2.33341ZM7.58464 3.79175C7.58464 3.44703 7.65253 3.10568 7.78445 2.7872C7.91637 2.46872 8.10973 2.17935 8.35348 1.93559C8.59723 1.69184 8.88661 1.49848 9.20509 1.36656C9.52357 1.23465 9.86492 1.16675 10.2096 1.16675C10.5544 1.16675 10.8957 1.23465 11.2142 1.36656C11.5327 1.49848 11.822 1.69184 12.0658 1.93559C12.3095 2.17935 12.5029 2.46872 12.6348 2.7872C12.7667 3.10568 12.8346 3.44703 12.8346 3.79175C12.8346 4.48794 12.5581 5.15562 12.0658 5.6479C11.5735 6.14019 10.9058 6.41675 10.2096 6.41675C9.51344 6.41675 8.84576 6.14019 8.35348 5.6479C7.8612 5.15562 7.58464 4.48794 7.58464 3.79175ZM1.16797 7.58342H6.41797V12.8334H1.16797V7.58342ZM2.33464 8.75008V11.6667H5.2513V8.75008H2.33464ZM7.58464 7.58342H12.8346V12.8334H7.58464V7.58342ZM8.7513 8.75008V11.6667H11.668V8.75008H8.7513Z" fill="#111111"/>
</g>
</svg>
