<svg width="13" height="16" viewBox="0 0 13 16" fill="none" xmlns="http://www.w3.org/2000/svg">
<path id="Vector" d="M12.727 7.4009C12.6407 7.49038 12.5382 7.56137 12.4254 7.60982C12.3126 7.65826 12.1916 7.6832 12.0694 7.6832C11.9472 7.6832 11.8263 7.65826 11.7134 7.60982C11.6006 7.56137 11.4981 7.49038 11.4119 7.4009L7.42873 3.28251L7.42873 15.0402C7.42873 15.2947 7.33093 15.5389 7.15684 15.7189C6.98275 15.8989 6.74664 16 6.50044 16C6.25424 16 6.01812 15.8989 5.84404 15.7189C5.66995 15.5389 5.57214 15.2947 5.57214 15.0402L5.57214 3.28251L1.58744 7.4009C1.41305 7.58121 1.17653 7.68251 0.929904 7.68251C0.683278 7.68251 0.446753 7.58121 0.272363 7.4009C0.0979718 7.22059 2.59863e-09 6.97603 0 6.72103C-2.59862e-09 6.46603 0.0979718 6.22148 0.272363 6.04117L5.84212 0.282301C5.92836 0.192821 6.03084 0.121824 6.14368 0.0733804C6.25651 0.0249368 6.37749 0 6.49966 0C6.62184 0 6.74282 0.0249368 6.85565 0.0733804C6.96849 0.121824 7.07096 0.192821 7.15721 0.282301L12.727 6.04117C12.8135 6.13033 12.8822 6.23629 12.929 6.35296C12.9759 6.46962 13 6.59471 13 6.72103C13 6.84736 12.9759 6.97244 12.929 7.0891C12.8822 7.20577 12.8135 7.31173 12.727 7.4009Z" fill="#4D4D4D"/>
</svg>
