<svg width="14" height="14" viewBox="0 0 14 14" fill="none" xmlns="http://www.w3.org/2000/svg">
<g id="Group 524">
<path id="Vector" d="M0 0.453125H6.09609V6.54922H0V0.453125ZM1.35469 1.80781V5.19453H4.74141V1.80781H1.35469ZM10.4988 1.80781C10.0497 1.80781 9.61901 1.98622 9.30144 2.30379C8.98388 2.62135 8.80547 3.05206 8.80547 3.50117C8.80547 3.95028 8.98388 4.38099 9.30144 4.69856C9.61901 5.01612 10.0497 5.19453 10.4988 5.19453C10.9479 5.19453 11.3786 5.01612 11.6962 4.69856C12.0138 4.38099 12.1922 3.95028 12.1922 3.50117C12.1922 3.05206 12.0138 2.62135 11.6962 2.30379C11.3786 1.98622 10.9479 1.80781 10.4988 1.80781ZM7.45078 3.50117C7.45078 3.1009 7.52962 2.70454 7.6828 2.33473C7.83598 1.96493 8.0605 1.62891 8.34353 1.34588C8.62657 1.06284 8.96258 0.838322 9.33239 0.685144C9.7022 0.531965 10.0986 0.453125 10.4988 0.453125C10.8991 0.453125 11.2955 0.531965 11.6653 0.685144C12.0351 0.838322 12.3711 1.06284 12.6541 1.34588C12.9372 1.62891 13.1617 1.96493 13.3149 2.33473C13.468 2.70454 13.5469 3.1009 13.5469 3.50117C13.5469 4.30956 13.2257 5.08485 12.6541 5.65647C12.0825 6.22809 11.3072 6.54922 10.4988 6.54922C9.69044 6.54922 8.91515 6.22809 8.34353 5.65647C7.77191 5.08485 7.45078 4.30956 7.45078 3.50117ZM0 7.90391H6.09609V14H0V7.90391ZM1.35469 9.25859V12.6453H4.74141V9.25859H1.35469ZM7.45078 7.90391H13.5469V14H7.45078V7.90391ZM8.80547 9.25859V12.6453H12.1922V9.25859H8.80547Z" fill="#111111"/>
</g>
</svg>
